<svg xmlns="http://www.w3.org/2000/svg" xml:space="preserve" width="30.0526mm" height="11.5713mm" version="1.1" style="shape-rendering:geometricPrecision; text-rendering:geometricPrecision; image-rendering:optimizeQuality; fill-rule:evenodd; clip-rule:evenodd"
viewBox="0 0 334.4 128.75"
 xmlns:xlink="http://www.w3.org/1999/xlink">
 <defs>
  <style type="text/css">
   <![CDATA[
    .fil0 {fill:#003366}
    .fil2 {fill:#B85D0D}
    .fil1 {fill:#D78C4B}
    .fil3 {fill:#003366;fill-rule:nonzero}
    .fil4 {fill:#D78C4B;fill-rule:nonzero}
   ]]>
  </style>
 </defs>
 <g id="Layer_x0020_1">
  <metadata id="CorelCorpID_0Corel-Layer"/>
  <polygon class="fil0" points="18.84,0 44.28,0 44.28,36.64 -0,36.64 -0,18.84 "/>
  <rect class="fil1" x="24.4" y="19.09" width="44.28" height="109.67"/>
  <polygon class="fil2" points="48.82,18.79 48.82,41.45 24.5,41.45 24.5,18.79 "/>
  <path class="fil3" d="M91.67 90.53c0,-0.28 0,-0.66 0.09,-1.22 0,-0.47 0,-0.85 0.09,-1.04 0,-0.09 0,-0.38 0.09,-0.75 0,-0.38 0,-0.66 0.09,-0.85 0,-0.09 0.09,-0.38 0.19,-0.66 0.09,-0.28 0.19,-0.57 0.28,-0.85 0.09,-0.19 0.28,-0.47 0.47,-0.75 0.28,-0.47 0.57,-0.75 0.94,-0.94 0.38,-0.19 0.85,-0.38 1.41,-0.57 0.57,-0.19 1.04,-0.38 1.32,-0.57l15.54 0c0.47,0.28 0.94,0.47 1.6,0.75 0.57,0.28 1.04,0.47 1.51,0.75 0.47,0.28 0.85,0.57 1.23,0.94 0.09,0.09 0.19,0.19 0.28,0.28 0.09,0.09 0.09,0.09 0.19,0.19 0.09,0.09 0.09,0.09 0.19,0.19 0.09,0.09 0.09,0.19 0.19,0.19 0,0.09 0,0.19 0.09,0.28 0,0.09 0,0.19 0.09,0.28 0,0.09 0,0.19 0.09,0.28 0,0.19 0,0.28 0,0.38 0,0.09 0,0.28 0.09,0.57 0.09,0.28 0.09,0.47 0.09,0.57l9.33 0c0.38,-2.54 0.38,-4.52 -0.09,-5.84 -0.47,-1.32 -1.41,-2.92 -2.92,-4.71 -1.32,-1.6 -2.73,-2.83 -4.24,-3.58 -1.6,-0.75 -3.49,-1.23 -5.65,-1.41 -1.04,-0.09 -2.07,-0.09 -3.2,-0.19 -1.13,0 -2.17,0 -3.11,0 -0.94,0 -2.07,0 -3.49,0l-10.36 0c-1.13,0 -2.07,0.19 -2.92,0.57 -0.85,0.47 -1.98,1.22 -3.2,2.26 -1.23,1.04 -2.17,1.79 -2.64,2.17 -2.17,1.6 -3.77,4.05 -4.71,7.54 0,0 0,-0.38 0,-1.13 -0.09,0.66 -0.09,3.2 -0.19,7.63 0.09,0.75 0.28,1.41 0.47,2.07 0.19,0.66 0.38,1.13 0.57,1.51 0.09,0.47 0.38,0.94 0.85,1.41 0.38,0.57 0.66,0.94 0.94,1.23 0.28,0.28 0.66,0.66 1.32,1.32 0.66,0.66 1.04,1.13 1.32,1.41 0.47,0.47 0.85,0.85 1.23,1.13 0.38,0.38 0.75,0.66 1.04,0.94 0.28,0.28 0.75,0.47 1.23,0.66 0.47,0.28 0.75,0.38 1.04,0.47 0.19,0.09 0.66,0.28 1.32,0.47 0.66,0.19 1.04,0.28 1.32,0.38 0.19,0.09 0.75,0.19 1.7,0.38 0.85,0.28 1.51,0.38 1.79,0.47l11.4 0 0.85 0c1.41,0 2.36,0.09 2.92,0.19 0.57,0.19 1.32,0.57 2.17,1.23 0.09,0.09 0.38,0.19 0.66,0.38 0.28,0.19 0.47,0.28 0.57,0.38 0.09,0.09 0.19,0.19 0.38,0.38 0.09,0.19 0.19,0.38 0.28,0.57 0.09,0.28 0.09,0.57 0.19,0.85 0.09,0.38 0.09,0.75 0,1.22 0,0.28 0,0.66 0,1.13 -0.09,0.57 -0.09,0.94 -0.09,1.04 0,0.19 0,0.47 -0.09,0.85 -0.09,0.38 -0.09,0.66 -0.09,0.75 -0.09,0.19 -0.09,0.47 -0.19,0.75 -0.09,0.28 -0.28,0.57 -0.38,0.75 -0.09,0.28 -0.28,0.57 -0.47,0.85 -0.28,0.47 -0.57,0.75 -0.94,0.94 -0.38,0.19 -0.85,0.38 -1.41,0.57 -0.57,0.19 -1.04,0.38 -1.32,0.57l-15.54 0c-0.38,-0.28 -0.85,-0.47 -1.41,-0.75 -0.66,-0.28 -1.13,-0.47 -1.6,-0.75 -0.47,-0.28 -0.94,-0.57 -1.32,-0.94 -0.57,-0.57 -0.94,-1.41 -1.23,-2.64 -0.09,-0.28 -0.09,-0.47 -0.09,-0.57l-9.33 0c-0.38,2.54 -0.38,4.52 0.09,5.84 0.47,1.32 1.41,2.92 2.92,4.71 2.45,3.01 5.75,4.71 9.89,4.99 1.04,0.09 2.07,0.09 3.2,0.19 1.13,0 2.17,0 3.11,0 0.94,0 2.07,0 3.49,0l10.36 0c1.13,0 2.17,-0.19 3.02,-0.66 0.85,-0.38 1.98,-1.13 3.2,-2.17 1.23,-1.04 2.07,-1.79 2.54,-2.17 2.17,-1.6 3.77,-4.05 4.71,-7.54 0,0 0,0.38 0.09,1.13 0,-0.66 0,-3.2 0.09,-7.63 -0.09,-0.66 -0.19,-1.23 -0.28,-1.79 -0.09,-0.47 -0.28,-1.04 -0.57,-1.51 -0.28,-0.47 -0.47,-0.94 -0.57,-1.23 -0.09,-0.28 -0.38,-0.66 -0.75,-1.13 -0.47,-0.47 -0.75,-0.85 -0.94,-1.04 -0.19,-0.19 -0.57,-0.57 -1.13,-1.23 -0.66,-0.57 -1.04,-0.94 -1.22,-1.23 -0.47,-0.47 -0.85,-0.85 -1.23,-1.22 -0.38,-0.28 -0.66,-0.57 -0.94,-0.85 -0.28,-0.28 -0.75,-0.47 -1.23,-0.75 -0.47,-0.19 -0.85,-0.38 -1.04,-0.47 -0.28,-0.09 -0.66,-0.19 -1.32,-0.38 -0.66,-0.19 -1.04,-0.28 -1.32,-0.38 -0.28,-0.09 -0.85,-0.19 -1.7,-0.47 -0.85,-0.19 -1.51,-0.28 -1.88,-0.38l-0.66 0 -2.64 0 -8.95 0c-1.32,0 -2.26,-0.09 -2.83,-0.28 -0.66,-0.09 -1.41,-0.47 -2.26,-1.13 -0.19,-0.09 -0.38,-0.28 -0.57,-0.38 -0.28,-0.09 -0.47,-0.28 -0.57,-0.38 -0.09,-0.09 -0.28,-0.19 -0.38,-0.38 -0.19,-0.09 -0.28,-0.28 -0.38,-0.47 -0.09,-0.19 -0.09,-0.47 -0.09,-0.85 -0.09,-0.28 -0.09,-0.66 -0.09,-1.13z"/>
  <path id="1" class="fil3" d="M149.43 128.5l11.02 0 0 -9.42 -7.72 0c0,0 -0.75,-0.57 -2.36,-1.6 -0.28,-0.28 -0.47,-0.47 -0.66,-0.75 -0.28,-0.28 -0.47,-0.57 -0.75,-0.94 -0.28,-0.28 -0.47,-0.57 -0.66,-0.85l0 -31.37 12.15 0 0 -9.7 -12.06 0 0 -11.31 -10.36 0 0 53.89c0.09,0.19 0.38,0.94 0.85,2.35 0.47,1.41 0.94,2.54 1.41,3.3 0.85,1.22 2.26,2.54 4.24,3.96 0.47,0.38 1.04,0.66 1.51,0.94 0.47,0.28 1.13,0.47 1.79,0.75 0.66,0.28 1.13,0.47 1.6,0.75z"/>
  <path id="2" class="fil4" d="M202.29 98.64c0.38,-0.28 0.85,-0.47 1.41,-0.75 0.57,-0.28 1.04,-0.57 1.41,-0.85 0.38,-0.28 0.75,-0.57 1.04,-1.04 1.32,-1.88 1.88,-3.67 1.79,-5.46 -0.09,-2.07 -1.04,-4.05 -2.64,-6.03 -0.38,-0.47 -0.75,-0.75 -1.23,-1.04 -0.47,-0.28 -0.94,-0.47 -1.51,-0.75 -0.66,-0.19 -1.13,-0.38 -1.6,-0.66l-15.54 0c-0.28,0.19 -0.75,0.38 -1.23,0.57 -0.47,0.28 -0.94,0.47 -1.32,0.66 -0.38,0.19 -0.75,0.47 -1.13,0.85 -0.38,0.47 -0.66,0.85 -0.94,1.32 -0.28,0.47 -0.47,0.94 -0.66,1.6 -0.28,0.66 -0.47,1.13 -0.75,1.51l0 10.08 22.89 0zm5.37 19.41l0.19 10.46 -22.52 -0.38c-0.66,-0.19 -1.6,-0.38 -2.83,-0.66 -1.22,-0.28 -1.98,-0.47 -2.35,-0.57 -0.47,-0.09 -1.04,-0.28 -1.79,-0.57 -0.75,-0.28 -1.41,-0.66 -1.88,-1.13 -0.47,-0.38 -1.13,-0.94 -1.79,-1.6 -1.32,-1.41 -2.26,-2.45 -2.73,-3.11 -0.57,-0.66 -1.13,-1.51 -1.7,-2.73 -0.66,-1.23 -1.04,-2.54 -1.23,-3.96l0.38 -29.3c0.85,-2.92 2.35,-5.46 4.71,-7.54 1.6,-1.32 3.01,-2.36 4.24,-3.01 1.23,-0.66 2.73,-1.04 4.52,-1.32 1.23,-0.19 2.45,-0.28 3.49,-0.38 1.04,-0.09 2.26,-0.09 3.58,-0.09 1.23,0 2.36,0 3.3,-0.09 6.5,0.19 9.8,0.28 9.8,0.28 2.17,0.19 3.96,0.66 5.46,1.32 1.41,0.75 2.92,1.88 4.43,3.48 1.41,1.41 2.36,2.73 3.01,4.15 0.66,1.41 1.23,3.39 1.7,5.84 0.85,3.49 0.75,6.88 -0.28,9.99 -0.47,1.6 -1.04,2.83 -1.79,3.86 -0.75,1.04 -1.79,2.17 -3.2,3.39 -2.07,1.79 -4.43,2.83 -7.16,3.11 -2.92,0.28 -5.75,0.47 -8.29,0.57 -2.64,0.09 -5.56,0.09 -8.85,0 -3.3,-0.09 -6.12,-0.09 -8.48,0 -0.09,2.54 0.57,4.71 1.98,6.5 1.04,1.23 1.98,2.17 2.83,2.73 0.85,0.66 1.98,0.94 3.2,0.94 2.17,0 4.33,0 6.41,-0.09 2.07,0 4.43,0 7.07,-0.09 2.54,0 4.8,0 6.59,0z"/>
  <path id="3" class="fil4" d="M227.08 106.83c0,-0.19 0,-0.47 0,-0.85 0,-0.38 0,-0.66 0,-0.85 0,-5.75 0,-8.95 0,-9.7 0,-0.19 0,-0.47 0,-0.85 0,-0.38 0,-0.66 0,-0.85l0 -9.23c0.85,-2.92 2.35,-5.46 4.71,-7.54 1.6,-1.32 3.01,-2.36 4.24,-3.01 1.23,-0.66 2.73,-1.04 4.52,-1.32 1.23,-0.19 2.45,-0.28 3.49,-0.38 1.04,-0.09 2.26,-0.09 3.58,-0.09 1.23,0 2.36,0 3.3,-0.09 6.5,0.19 9.8,0.28 9.8,0.28 2.35,0.19 4.33,0.66 5.94,1.32 1.51,0.66 2.83,1.88 3.96,3.48 1.6,2.17 2.54,4.24 3.01,6.22 0.47,1.98 0.47,4.43 0,7.16l-9.33 0c-0.09,-0.47 -0.09,-1.13 -0.19,-1.98 -0.09,-0.85 -0.19,-1.6 -0.28,-2.26 -0.09,-0.66 -0.38,-1.22 -0.85,-1.79 -0.28,-0.47 -0.66,-0.85 -1.13,-1.13 -0.47,-0.28 -0.94,-0.47 -1.6,-0.66 -0.66,-0.19 -1.13,-0.38 -1.6,-0.66l-15.54 0c-0.28,0.19 -0.75,0.38 -1.23,0.57 -0.47,0.28 -0.94,0.47 -1.32,0.66 -0.38,0.19 -0.75,0.47 -1.13,0.85 -0.38,0.47 -0.66,0.85 -0.94,1.32 -0.28,0.47 -0.47,0.94 -0.66,1.6 -0.28,0.66 -0.47,1.13 -0.75,1.51l0 5.18 0 13.1 0 5.18c0.28,0.38 0.47,0.85 0.75,1.51 0.19,0.66 0.38,1.13 0.66,1.6 0.28,0.47 0.57,0.85 0.94,1.32 0.38,0.38 0.75,0.66 1.13,0.85 0.38,0.19 0.85,0.38 1.32,0.57 0.47,0.28 0.94,0.47 1.23,0.66l15.54 0c0.47,-0.28 0.94,-0.47 1.6,-0.66 0.66,-0.19 1.13,-0.38 1.6,-0.66 0.47,-0.28 0.85,-0.66 1.13,-1.13 0.47,-0.57 0.75,-1.23 0.85,-1.88 0.09,-0.66 0.19,-1.32 0.28,-2.17 0.09,-0.85 0.09,-1.51 0.19,-1.98l9.33 0c0.47,2.73 0.47,5.09 0,7.07 -0.47,1.98 -1.41,4.15 -3.01,6.31 -1.13,1.6 -2.45,2.83 -3.96,3.49 -1.6,0.66 -3.58,1.13 -5.94,1.32 0,0 -3.3,0.09 -9.8,0.28 -0.94,-0.09 -2.07,-0.09 -3.3,-0.09 -1.32,0 -2.54,0 -3.58,-0.09 -1.04,-0.09 -2.26,-0.19 -3.49,-0.38 -1.79,-0.28 -3.3,-0.75 -4.52,-1.41 -1.23,-0.66 -2.64,-1.6 -4.24,-2.92 -2.36,-2.07 -3.86,-4.62 -4.71,-7.54 0,-0.94 0,-4.05 0,-9.23z"/>
  <path id="4" class="fil4" d="M295.68 128.41l-10.65 0 0 -55.96 0 -19.31 10.55 0 0 19.31 20.44 0c0.66,0.28 1.51,0.57 2.54,0.85 1.04,0.28 1.88,0.66 2.64,0.94 0.75,0.38 1.51,0.85 2.26,1.41 3.39,2.54 6.12,5.46 8.29,8.76 0.47,0.85 0.94,1.6 1.22,2.36 0.28,0.85 0.47,1.79 0.75,2.83 0.19,1.04 0.38,1.98 0.66,2.64l0 36.18 -10.46 0 0 -34.48c-0.19,-0.47 -0.38,-1.04 -0.57,-1.79 -0.19,-0.66 -0.38,-1.32 -0.57,-1.88 -0.28,-0.47 -0.57,-1.04 -0.94,-1.51 -1.41,-1.98 -3.2,-3.67 -5.46,-5.28 -0.38,-0.28 -0.75,-0.57 -1.23,-0.66 -0.47,-0.09 -0.94,-0.28 -1.41,-0.38 -0.57,-0.09 -1.04,-0.28 -1.41,-0.38l-16.67 0 0 46.35z"/>
 </g>
</svg>